<svg width="272" height="271" viewBox="0 0 272 271" fill="none" xmlns="http://www.w3.org/2000/svg">
<path d="M135.905 66.5621C133.52 66.5621 131.162 66.6838 128.838 66.9218C126.514 67.1598 124.223 67.5125 121.97 67.9754C119.717 68.4384 117.505 69.0118 115.337 69.6886L108.973 72.0253L102.913 74.951L97.1957 78.4301L91.8533 82.4261L86.9234 86.9042L82.441 91.8298L78.4406 97.1662L74.9572 102.879L72.0298 108.931C71.1498 111.001 70.367 113.123 69.6895 115.29C69.012 117.456 68.4386 119.668 67.9746 121.918C67.5108 124.168 67.1581 126.457 66.9191 128.779C66.6804 131.101 66.5604 133.457 66.5604 135.839C66.5604 138.22 66.6821 140.576 66.9191 142.898C67.1551 145.202 67.5072 147.492 67.9746 149.76C68.4386 152.019 69.012 154.222 69.6895 156.388C70.367 158.555 71.1489 160.676 72.0298 162.747L74.9572 168.799L78.4406 174.511L82.441 179.848L86.9234 184.774L91.8533 189.252L97.1957 193.248L102.913 196.726L108.973 199.653L115.337 201.989L121.97 203.703C124.24 204.17 126.532 204.522 128.838 204.758C131.186 204.997 133.545 205.117 135.905 205.115C138.289 205.115 140.648 204.995 142.971 204.758C145.276 204.522 147.568 204.17 149.838 203.703L156.473 201.989L162.837 199.653L168.895 196.726L174.614 193.248L179.956 189.252L184.887 184.774L189.37 179.848L193.37 174.511L196.853 168.799L199.781 162.747L202.12 156.388C202.798 154.222 203.372 152.01 203.836 149.76L204.89 142.898C205.129 140.576 205.25 138.22 205.25 135.838C205.25 133.456 205.129 131.1 204.89 128.778C204.655 126.474 204.303 124.185 203.836 121.917C203.372 119.658 202.798 117.456 202.12 115.289L199.781 108.93L196.853 102.878L193.37 97.1652L189.37 91.8288L184.887 86.9033L179.956 82.4252L174.614 78.4294L168.895 74.9502L162.837 72.0245L156.473 69.6876L149.838 67.9746L142.971 66.9209C140.623 66.6811 138.264 66.5619 135.905 66.5621ZM135.905 90.4738C137.481 90.4738 139.037 90.5519 140.57 90.7065L145.087 91.3903L149.45 92.502L153.629 94.0198L157.601 95.9222L161.336 98.1851L164.829 100.789L168.048 103.709L170.971 106.925L173.577 110.414L175.843 114.154L177.745 118.124C178.317 119.483 178.824 120.875 179.265 122.299C179.707 123.723 180.078 125.178 180.377 126.66C180.677 128.142 180.899 129.65 181.061 131.182L181.294 135.843C181.294 137.418 181.216 138.973 181.061 140.505C180.906 142.038 180.679 143.546 180.377 145.027C180.076 146.508 179.704 147.963 179.265 149.388L177.745 153.562L175.843 157.532L173.577 161.272L170.971 164.762L168.048 167.977L164.829 170.898L161.336 173.502L157.601 175.764L153.629 177.667L149.45 179.184L145.087 180.296L140.57 180.979C139.019 181.135 137.462 181.212 135.904 181.212C134.345 181.212 132.788 181.135 131.237 180.979L126.72 180.296C125.237 179.996 123.781 179.624 122.356 179.184L118.177 177.667L114.205 175.764L110.469 173.502L106.977 170.898L103.758 167.977L100.835 164.762L98.2286 161.272L95.9631 157.532L94.0606 153.562L92.5404 149.388L91.4285 145.027L90.7449 140.505C90.5894 138.956 90.5116 137.4 90.512 135.843C90.5116 134.286 90.5894 132.73 90.7449 131.182C90.8986 129.65 91.127 128.141 91.4285 126.66C91.7269 125.189 92.0983 123.734 92.5414 122.3L94.0616 118.125L95.964 114.155L98.2295 110.415L100.835 106.926L103.759 103.71L106.978 100.789L110.47 98.186L114.206 95.923L118.178 94.0205C119.545 93.4464 120.94 92.9398 122.357 92.503L126.722 91.391C128.205 91.0905 129.714 90.8611 131.239 90.7075C132.79 90.5521 134.346 90.4736 135.905 90.4738Z" fill="url(#paint0_radial_1_47)"/>
<path d="M208.061 46.855C207.511 46.855 206.961 46.8828 206.414 46.9384C205.866 46.9938 205.321 47.0766 204.781 47.1868C204.242 47.2969 203.708 47.434 203.182 47.5977C202.655 47.7615 202.139 47.9517 201.631 48.1675C201.124 48.3836 200.629 48.6252 200.145 48.8911C199.661 49.1566 199.192 49.4462 198.738 49.759C198.282 50.072 197.844 50.4077 197.424 50.765C197.002 51.1218 196.599 51.4995 196.215 51.8969C195.833 52.2944 195.469 52.7111 195.126 53.1451C194.784 53.5794 194.464 54.0304 194.166 54.4968C193.869 54.9629 193.596 55.4436 193.345 55.9372C193.097 56.4311 192.871 56.9372 192.671 57.454C192.471 57.9703 192.298 58.4966 192.149 59.0305C192.002 59.5645 191.882 60.1055 191.79 60.6516C191.696 61.1975 191.63 61.7477 191.59 62.3004C191.562 62.6917 191.549 63.0841 191.549 63.4765C191.549 64.0309 191.575 64.5849 191.631 65.1366C191.686 65.688 191.769 66.2362 191.878 66.7792C191.987 67.3223 192.123 67.8595 192.285 68.3889C192.449 68.9184 192.637 69.4394 192.852 69.9499C193.066 70.4606 193.306 70.9602 193.571 71.4468C193.835 71.9332 194.123 72.406 194.433 72.8636C194.744 73.3208 195.077 73.762 195.432 74.1857C195.787 74.6097 196.162 75.0157 196.558 75.4019C196.953 75.788 197.365 76.1539 197.799 76.4983C198.23 76.8429 198.678 77.1654 199.141 77.465C199.604 77.7646 200.083 78.0407 200.572 78.2921C201.064 78.5436 201.567 78.7704 202.079 78.9713C202.593 79.1722 203.114 79.347 203.645 79.4952C204.176 79.6432 204.713 79.7644 205.255 79.8582C205.798 79.9526 206.346 80.0196 206.894 80.0589C207.283 80.0868 207.673 80.1006 208.063 80.1007C208.613 80.1007 209.165 80.0733 209.713 80.0181C210.259 79.9627 210.805 79.8799 211.343 79.7697C211.884 79.6597 212.417 79.5225 212.944 79.3588C213.469 79.195 213.987 79.0048 214.494 78.789C215 78.573 215.497 78.3318 215.979 78.0661C216.463 77.8004 216.932 77.5104 217.388 77.1975C217.842 76.8847 218.281 76.5493 218.702 76.1925C219.122 75.8352 219.525 75.4573 219.909 75.0596C220.294 74.6621 220.657 74.2454 220.998 73.8113C221.34 73.3771 221.661 72.9261 221.958 72.4597C222.256 71.9934 222.531 71.5123 222.779 71.0186C223.03 70.5245 223.256 70.0183 223.455 69.5018C223.655 68.9852 223.828 68.4591 223.975 67.9251C224.122 67.3912 224.242 66.8502 224.336 66.3041C224.431 65.7582 224.496 65.2078 224.534 64.6553C224.562 64.2638 224.577 63.8716 224.577 63.4792C224.577 62.925 224.549 62.3712 224.495 61.8198C224.44 61.2685 224.357 60.7203 224.248 60.1772C224.139 59.6342 224.001 59.0969 223.839 58.5676C223.675 58.0381 223.487 57.517 223.273 57.0065C223.058 56.4959 222.819 55.9963 222.555 55.5097C222.291 55.0233 222.003 54.5505 221.693 54.0929C221.38 53.6353 221.047 53.1939 220.693 52.7698C220.337 52.346 219.962 51.94 219.569 51.5538C219.173 51.1677 218.759 50.8019 218.328 50.4575C217.896 50.113 217.448 49.7907 216.985 49.4914C216.522 49.1918 216.043 48.9158 215.552 48.6644C215.061 48.4128 214.558 48.1861 214.046 47.9852C213.533 47.7843 213.01 47.6095 212.479 47.4613C211.95 47.3129 211.411 47.1915 210.869 47.0973C210.326 47.0034 209.78 46.9365 209.231 46.8975C208.841 46.8697 208.451 46.855 208.061 46.855Z" fill="url(#paint1_radial_1_47)"/>
<path d="M122.755 0.310449C115.213 0.298286 108.482 0.329556 102.436 0.414688L86.2265 0.849034C81.4243 1.05752 77.1816 1.3294 73.3733 1.68122C71.4692 1.8567 69.6727 2.05302 67.9701 2.26933C66.3497 2.47354 64.734 2.71134 63.1237 2.98253C61.5903 3.24315 60.1352 3.52459 58.7401 3.83036C57.3451 4.13615 56.0125 4.46625 54.7267 4.82068C53.47 5.16726 52.2228 5.54848 50.9872 5.96389C49.7762 6.37217 48.5947 6.80479 47.428 7.26693C45.0947 8.19122 42.8188 9.22841 40.475 10.3907C38.6716 11.2855 37.0054 12.1915 35.4227 13.1506C33.84 14.1096 32.3406 15.1225 30.8725 16.2257C29.3606 17.3674 27.9033 18.5797 26.5057 19.8587C25.0445 21.1895 23.5521 22.6532 22.0014 24.289C20.053 26.333 18.3599 28.2389 16.857 30.1091C16.1056 31.0439 15.402 31.9683 14.7392 32.8977C14.0837 33.8137 13.4571 34.7501 12.8602 35.7052C12.2695 36.6522 11.7101 37.6165 11.1749 38.6085C10.6315 39.6176 10.1179 40.6426 9.63474 41.6818C8.64618 43.805 7.72363 46.0914 6.80281 48.6437C6.1197 50.5303 5.50798 52.4424 4.969 54.3752C4.41912 56.3507 3.93006 58.4173 3.49396 60.6523C3.05788 62.8875 2.67739 65.2913 2.34294 67.9494C1.98254 70.8632 1.69463 73.7855 1.47947 76.7137C1.23623 79.933 1.0347 83.4756 0.869645 87.4185L0.478736 100.529L0.268511 116.51L0.207703 135.827L0.385784 163.918L0.941748 185.201L1.37001 193.514L1.90513 200.404C2.07667 202.261 2.29129 204.112 2.54883 205.959C2.78337 207.599 3.0353 209.034 3.30633 210.277C3.85628 212.802 4.50657 215.305 5.25567 217.779C5.97293 220.148 6.79317 222.483 7.71406 224.78C8.61925 227.03 9.60955 229.2 10.6867 231.288C11.7639 233.376 12.9279 235.384 14.1789 237.312C15.4298 239.238 16.7676 241.087 18.1957 242.857C19.6222 244.628 21.1396 246.32 22.7417 247.934C24.346 249.55 26.0383 251.086 27.8218 252.548C29.6261 254.026 31.502 255.416 33.4421 256.709C35.2429 257.913 37.0247 259.016 38.8194 260.027C40.614 261.04 42.4243 261.957 44.2852 262.793C46.1458 263.628 48.0535 264.379 50.0464 265.055C52.039 265.731 54.1153 266.332 56.3096 266.865C58.504 267.399 60.8267 267.866 63.2852 268.275C65.7436 268.684 68.3714 269.034 71.179 269.335C73.9866 269.636 76.9818 269.885 80.2004 270.094C83.4189 270.303 86.8589 270.469 90.5551 270.602C96.2651 270.81 104.909 270.93 114.876 270.977L147.143 270.911L177.699 270.484L189.317 270.156L196.885 269.768C198.51 269.635 200.1 269.478 201.634 269.296C203.169 269.113 204.681 268.904 206.156 268.665C207.628 268.428 209.069 268.162 210.483 267.866C211.882 267.575 213.273 267.249 214.656 266.891C216.025 266.543 217.375 266.147 218.712 265.727C220.047 265.309 221.371 264.855 222.685 264.368C224.007 263.878 225.316 263.356 226.613 262.805C227.918 262.247 229.221 261.654 230.53 261.023C232.539 260.055 234.157 259.248 235.576 258.46C236.913 257.728 238.2 256.909 239.429 256.007C240.642 255.114 241.847 254.097 243.237 252.817C244.626 251.536 246.203 249.994 248.151 248.043C249.867 246.33 251.311 244.84 252.558 243.486C253.804 242.132 254.855 240.914 255.776 239.739C256.653 238.624 257.471 237.464 258.226 236.263C258.962 235.09 259.64 233.872 260.329 232.521C261.369 230.49 262.293 228.606 263.12 226.789C263.924 225.04 264.658 223.257 265.321 221.449C265.975 219.654 266.541 217.83 267.018 215.981C267.507 214.079 267.929 212.069 268.295 209.866C268.658 207.663 268.967 205.266 269.234 202.588C269.502 199.912 269.729 196.952 269.929 193.629L270.46 182.468L270.914 168.589L271.24 153.126L271.364 136.958L271.074 105.203L270.686 90.9801L270.157 78.7681L269.496 69.2472C269.257 66.5977 268.997 64.5111 268.724 63.1003C268.419 61.5415 268.08 59.9901 267.705 58.4467C267.34 56.9452 266.939 55.4526 266.502 53.9705C266.076 52.5264 265.613 51.0934 265.114 49.673C264.621 48.2701 264.097 46.8966 263.549 45.5528C263.003 44.2089 262.41 42.8964 261.794 41.6116C261.177 40.3268 260.531 39.0732 259.853 37.8483C259.173 36.6236 258.467 35.4291 257.727 34.2641C256.989 33.0992 256.218 31.9637 255.416 30.8588C254.62 29.7574 253.787 28.6812 252.923 27.6316C252.063 26.588 251.17 25.5717 250.245 24.5842C249.323 23.5983 248.368 22.6417 247.385 21.716C246.4 20.7899 245.387 19.8933 244.342 19.0264C243.291 18.1566 242.216 17.3196 241.113 16.5168C240 15.7057 238.862 14.9287 237.701 14.1869C236.524 13.4346 235.326 12.7173 234.106 12.036C232.867 11.3434 231.605 10.6863 230.328 10.0658C228.206 9.0347 226.244 8.11999 224.319 7.30864C222.425 6.5034 220.495 5.78823 218.535 5.16556C216.563 4.54444 214.511 4.01195 212.253 3.5524C209.993 3.09286 207.53 2.70977 204.743 2.384C201.956 2.05825 198.844 1.79504 195.283 1.57613C191.724 1.35722 187.719 1.18521 183.147 1.04622L167.61 0.698747L147.945 0.466807L122.764 0.312172L122.755 0.310449ZM135.833 24.2012L172.147 24.408L185.846 24.672C189.618 24.778 192.498 24.9023 194.185 25.0456C196.384 25.2307 198.476 25.4625 200.48 25.7406C202.401 26.0059 204.314 26.3359 206.212 26.73C208.037 27.1122 209.777 27.5465 211.443 28.0364C213.108 28.5264 214.699 29.0755 216.224 29.6826C217.751 30.2899 219.211 30.9578 220.616 31.6894C222.009 32.4153 223.363 33.2141 224.672 34.0826C225.975 34.9469 227.231 35.8783 228.451 36.8815C229.669 37.8848 230.852 38.9603 232.006 40.1104C233.226 41.3241 234.351 42.5601 235.386 43.8353C236.418 45.1028 237.375 46.4311 238.247 47.8131C239.13 49.2148 239.924 50.6699 240.629 52.1695C241.348 53.6986 241.994 55.3142 242.574 57.0316C243.156 58.7491 243.672 60.5742 244.129 62.5245C244.609 64.5921 245.011 66.677 245.334 68.7747C245.681 70.9986 245.978 73.3701 246.231 75.9093C246.481 78.4484 246.69 81.1562 246.862 84.0533C246.999 86.377 247.12 89.4435 247.221 93.065L247.475 105.414L247.669 135.661L247.449 165.88L247.184 178.193L246.816 187.149C246.564 191.343 246.297 194.868 245.977 197.935C245.816 199.47 245.641 200.89 245.449 202.221C245.269 203.479 245.054 204.731 244.807 205.978C244.581 207.115 244.319 208.245 244.02 209.367C243.736 210.435 243.414 211.495 243.058 212.544C242.698 213.597 242.308 214.638 241.887 215.666C241.44 216.755 240.969 217.83 240.474 218.896C240.034 219.846 239.57 220.773 239.081 221.673C238.597 222.566 238.081 223.439 237.539 224.296C237 225.145 236.435 225.97 235.844 226.769C235.256 227.563 234.641 228.337 233.997 229.089C233.356 229.838 232.688 230.561 231.993 231.262C231.298 231.96 230.577 232.634 229.829 233.286C229.084 233.937 228.308 234.564 227.506 235.167C226.705 235.77 225.875 236.348 225.018 236.901C224.159 237.457 223.276 237.988 222.363 238.496C221.45 239.003 220.508 239.487 219.54 239.948C218.554 240.417 217.556 240.856 216.542 241.264C215.497 241.686 214.441 242.078 213.373 242.441C211.2 243.181 208.91 243.831 206.498 244.39C203.986 244.972 201.45 245.447 198.896 245.814C197.913 245.957 195.657 246.093 192.426 246.217L180.112 246.56L145.199 247.013L108.657 247.07L94.3062 246.917L84.9877 246.627L78.1164 246.143C75.9829 245.965 73.9987 245.765 72.1397 245.537C70.2808 245.311 68.5495 245.059 66.9207 244.773C65.3771 244.507 63.843 244.187 62.3209 243.818C60.9331 243.481 59.5594 243.087 58.2034 242.639C56.896 242.204 55.6458 241.726 54.4298 241.2C53.2135 240.675 52.0321 240.099 50.8619 239.47C49.6918 238.841 48.5339 238.159 47.3628 237.414C46.4795 236.852 45.6255 236.284 44.8038 235.683C43.982 235.08 43.1879 234.48 42.4236 233.851C41.6591 233.222 40.925 232.574 40.217 231.907C39.5137 231.243 38.8347 230.554 38.1809 229.842C37.5293 229.13 36.9064 228.399 36.3087 227.642C35.7088 226.882 35.1371 226.098 34.5949 225.296C34.0445 224.481 33.5239 223.647 33.0339 222.795C32.5386 221.935 32.0679 221.046 31.6205 220.127C31.1655 219.193 30.7411 218.244 30.3479 217.282C29.9483 216.301 29.5694 215.289 29.2134 214.246C28.501 212.156 27.8756 209.932 27.3318 207.561C26.788 205.191 26.324 202.671 25.9314 199.986C25.5388 197.303 25.2226 194.455 24.9706 191.431C24.7848 189.203 24.6371 185.733 24.5242 181.355L24.2878 165.783L24.3746 126.088L25.0584 88.1578L25.5796 74.7939L25.8749 70.3764C25.9775 69.1969 26.0835 68.323 26.192 67.7982C26.55 66.0722 26.9104 64.4659 27.283 62.9623C27.6312 61.5436 28.0186 60.1351 28.4445 58.7378C28.8494 57.4191 29.2759 56.1838 29.7319 55.0137C30.1716 53.8801 30.6618 52.7668 31.2009 51.6771C31.7272 50.6173 32.2929 49.6025 32.907 48.6149C33.5212 47.6272 34.1841 46.6691 34.9068 45.7161C35.6295 44.7631 36.4078 43.8223 37.2548 42.8685C38.1018 41.9148 39.0166 40.9514 40.0086 39.9585C41.1648 38.7957 42.3686 37.6813 43.6171 36.6183C44.796 35.6154 46.0253 34.6733 47.3003 33.796C48.5539 32.9271 49.8396 32.1541 51.1783 31.4435C52.517 30.733 53.9085 30.0909 55.3722 29.5133C56.8359 28.9356 58.3736 28.4187 60.0023 27.9496C61.7136 27.4696 63.4438 27.0601 65.1884 26.7221C67.0231 26.3626 68.9717 26.0489 71.0521 25.7753C73.1327 25.5017 75.346 25.2653 77.7125 25.0603C79.363 24.9179 82.207 24.791 85.952 24.6842L99.5817 24.4149L135.839 24.1933L135.833 24.2012Z" fill="url(#paint2_radial_1_47)"/>
<defs>
<radialGradient id="paint0_radial_1_47" cx="0" cy="0" r="1" gradientUnits="userSpaceOnUse" gradientTransform="translate(43.4071 290.708) rotate(-9.53101) scale(573.086 347.859)">
<stop stop-color="#FED576"/>
<stop offset="0.263" stop-color="#F47133"/>
<stop offset="0.609" stop-color="#BC3081"/>
<stop offset="1" stop-color="#4C63D2"/>
</radialGradient>
<radialGradient id="paint1_radial_1_47" cx="0" cy="0" r="1" gradientUnits="userSpaceOnUse" gradientTransform="translate(43.4077 290.708) rotate(-9.53102) scale(573.086 347.859)">
<stop stop-color="#FED576"/>
<stop offset="0.263" stop-color="#F47133"/>
<stop offset="0.609" stop-color="#BC3081"/>
<stop offset="1" stop-color="#4C63D2"/>
</radialGradient>
<radialGradient id="paint2_radial_1_47" cx="0" cy="0" r="1" gradientUnits="userSpaceOnUse" gradientTransform="translate(43.4077 290.708) rotate(-9.53101) scale(573.086 347.859)">
<stop stop-color="#FED576"/>
<stop offset="0.263" stop-color="#F47133"/>
<stop offset="0.609" stop-color="#BC3081"/>
<stop offset="1" stop-color="#4C63D2"/>
</radialGradient>
</defs>
</svg>
