<svg width="95" height="94" viewBox="0 0 95 94" fill="none" xmlns="http://www.w3.org/2000/svg">
<path opacity="0.16" d="M16.5779 70.5C16.5779 66.3449 18.2285 62.3601 21.1665 59.422C24.1046 56.4839 28.0895 54.8333 32.2445 54.8333H63.5779C67.7329 54.8333 71.7178 56.4839 74.6559 59.422C77.594 62.3601 79.2445 66.3449 79.2445 70.5C79.2445 72.5775 78.4193 74.57 76.9502 76.039C75.4812 77.508 73.4887 78.3333 71.4112 78.3333H24.4112C22.3337 78.3333 20.3412 77.508 18.8722 76.039C17.4032 74.57 16.5779 72.5775 16.5779 70.5Z" fill="#747474"/>
<path d="M16.5779 70.5C16.5779 66.3449 18.2285 62.3601 21.1665 59.422C24.1046 56.4839 28.0895 54.8333 32.2445 54.8333H63.5779C67.7329 54.8333 71.7178 56.4839 74.6559 59.422C77.594 62.3601 79.2445 66.3449 79.2445 70.5C79.2445 72.5775 78.4193 74.57 76.9502 76.039C75.4812 77.508 73.4887 78.3333 71.4112 78.3333H24.4112C22.3337 78.3333 20.3412 77.508 18.8722 76.039C17.4032 74.57 16.5779 72.5775 16.5779 70.5Z" stroke="#747474" stroke-width="7.83333" stroke-linejoin="round"/>
<path d="M47.9111 39.1667C54.4005 39.1667 59.6611 33.906 59.6611 27.4167C59.6611 20.9273 54.4005 15.6667 47.9111 15.6667C41.4218 15.6667 36.1611 20.9273 36.1611 27.4167C36.1611 33.906 41.4218 39.1667 47.9111 39.1667Z" stroke="#747474" stroke-width="7.83333"/>
</svg>
