<svg width="162" height="162" viewBox="0 0 162 162" fill="none" xmlns="http://www.w3.org/2000/svg">
<path d="M137.652 16.1943H121.457V8.09715C121.457 5.94965 120.604 3.89011 119.086 2.3716C117.567 0.85309 115.508 0 113.36 0C111.213 0 109.153 0.85309 107.635 2.3716C106.116 3.89011 105.263 5.94965 105.263 8.09715V16.1943H56.6801V8.09715C56.6801 5.94965 55.827 3.89011 54.3085 2.3716C52.7899 0.85309 50.7304 0 48.5829 0C46.4354 0 44.3759 0.85309 42.8574 2.3716C41.3389 3.89011 40.4858 5.94965 40.4858 8.09715V16.1943H24.2915C17.849 16.1943 11.6703 18.7536 7.1148 23.3091C2.55927 27.8646 0 34.0433 0 40.4858V137.652C0 144.094 2.55927 150.273 7.1148 154.828C11.6703 159.384 17.849 161.943 24.2915 161.943H137.652C144.094 161.943 150.273 159.384 154.828 154.828C159.384 150.273 161.943 144.094 161.943 137.652V40.4858C161.943 34.0433 159.384 27.8646 154.828 23.3091C150.273 18.7536 144.094 16.1943 137.652 16.1943ZM145.749 137.652C145.749 139.799 144.896 141.859 143.377 143.377C141.859 144.896 139.799 145.749 137.652 145.749H24.2915C22.144 145.749 20.0844 144.896 18.5659 143.377C17.0474 141.859 16.1943 139.799 16.1943 137.652V80.9715H145.749V137.652ZM145.749 64.7772H16.1943V40.4858C16.1943 38.3383 17.0474 36.2787 18.5659 34.7602C20.0844 33.2417 22.144 32.3886 24.2915 32.3886H40.4858V40.4858C40.4858 42.6333 41.3389 44.6928 42.8574 46.2113C44.3759 47.7298 46.4354 48.5829 48.5829 48.5829C50.7304 48.5829 52.7899 47.7298 54.3085 46.2113C55.827 44.6928 56.6801 42.6333 56.6801 40.4858V32.3886H105.263V40.4858C105.263 42.6333 106.116 44.6928 107.635 46.2113C109.153 47.7298 111.213 48.5829 113.36 48.5829C115.508 48.5829 117.567 47.7298 119.086 46.2113C120.604 44.6928 121.457 42.6333 121.457 40.4858V32.3886H137.652C139.799 32.3886 141.859 33.2417 143.377 34.7602C144.896 36.2787 145.749 38.3383 145.749 40.4858V64.7772Z" fill="#E4A951"/>
</svg>
