<svg width="76" height="76" viewBox="0 0 76 76" fill="none" xmlns="http://www.w3.org/2000/svg">
<g clip-path="url(#clip0_2_67)">
<path d="M50.1999 22.2C50.1999 26.3551 48.5493 30.3399 45.6113 33.278C42.6732 36.2161 38.6883 37.8667 34.5333 37.8667C30.3782 37.8667 26.3933 36.2161 23.4552 33.278C20.5172 30.3399 18.8666 26.3551 18.8666 22.2C18.8666 18.0449 20.5172 14.0601 23.4552 11.122C26.3933 8.18392 30.3782 6.53333 34.5333 6.53333C38.6883 6.53333 42.6732 8.18392 45.6113 11.122C48.5493 14.0601 50.1999 18.0449 50.1999 22.2ZM34.5333 41C42.0407 41 48.8683 43.1745 53.891 46.2389C56.3977 47.768 58.5409 49.5728 60.0887 51.5343C61.6115 53.4613 62.7333 55.7674 62.7333 58.2333C62.7333 60.881 61.4455 62.9678 59.5905 64.4561C57.8359 65.8661 55.5203 66.7999 53.0607 67.4516C48.1163 68.7582 41.5175 69.2 34.5333 69.2C27.5491 69.2 20.9503 68.7613 16.0059 67.4516C13.5462 66.7999 11.2307 65.8661 9.47599 64.4561C7.61792 62.9647 6.33325 60.881 6.33325 58.2333C6.33325 55.7674 7.45499 53.4613 8.97779 51.5311C10.5257 49.5728 12.6657 47.7711 15.1755 46.2358C20.1983 43.1777 27.0289 41 34.5333 41ZM65.8666 41C66.6652 41.0009 67.4334 41.3067 68.0141 41.8549C68.5948 42.4032 68.9443 43.1524 68.9911 43.9497C69.0379 44.7469 68.7785 45.532 68.2659 46.1444C67.7533 46.7568 67.0262 47.1504 66.2332 47.2447L65.8666 47.2667H62.7333C61.9346 47.2658 61.1665 46.96 60.5858 46.4117C60.0051 45.8635 59.6556 45.1142 59.6088 44.317C59.562 43.5197 59.8214 42.7347 60.334 42.1223C60.8465 41.5098 61.5736 41.1163 62.3667 41.0219L62.7333 41H65.8666ZM56.4666 34.7333C56.4666 33.9023 56.7967 33.1053 57.3843 32.5177C57.9719 31.9301 58.7689 31.6 59.5999 31.6H65.8666C66.6976 31.6 67.4946 31.9301 68.0822 32.5177C68.6698 33.1053 68.9999 33.9023 68.9999 34.7333C68.9999 35.5643 68.6698 36.3613 68.0822 36.9489C67.4946 37.5365 66.6976 37.8667 65.8666 37.8667H59.5999C58.7689 37.8667 57.9719 37.5365 57.3843 36.9489C56.7967 36.3613 56.4666 35.5643 56.4666 34.7333ZM56.4666 22.2C55.6356 22.2 54.8386 22.5301 54.251 23.1177C53.6634 23.7053 53.3333 24.5023 53.3333 25.3333C53.3333 26.1643 53.6634 26.9613 54.251 27.5489C54.8386 28.1365 55.6356 28.4667 56.4666 28.4667H65.8666C66.6976 28.4667 67.4946 28.1365 68.0822 27.5489C68.6698 26.9613 68.9999 26.1643 68.9999 25.3333C68.9999 24.5023 68.6698 23.7053 68.0822 23.1177C67.4946 22.5301 66.6976 22.2 65.8666 22.2H56.4666Z" fill="#747474"/>
</g>
<defs>
<clipPath id="clip0_2_67">
<rect width="75.2" height="75.2" fill="white" transform="translate(0.0666504 0.266663)"/>
</clipPath>
</defs>
</svg>
