<svg width="155" height="123" viewBox="0 0 155 123" fill="none" xmlns="http://www.w3.org/2000/svg">
<path d="M0 15.375C0 11.2973 1.63303 7.3866 4.53984 4.50323C7.44666 1.61986 11.3891 0 15.5 0H139.5C143.611 0 147.553 1.61986 150.46 4.50323C153.367 7.3866 155 11.2973 155 15.375V107.625C155 111.703 153.367 115.613 150.46 118.497C147.553 121.38 143.611 123 139.5 123H15.5C11.3891 123 7.44666 121.38 4.53984 118.497C1.63303 115.613 0 111.703 0 107.625V15.375ZM27.2723 15.375L77.5 58.9708L127.728 15.375H27.2723ZM139.5 25.5917L82.6073 74.9762C81.194 76.2045 79.379 76.8816 77.5 76.8816C75.621 76.8816 73.806 76.2045 72.3927 74.9762L15.5 25.5917V107.625H139.5V25.5917Z" fill="#0FA958"/>
</svg>
