<svg width="72" height="72" viewBox="0 0 72 72" fill="none" xmlns="http://www.w3.org/2000/svg">
<path fill-rule="evenodd" clip-rule="evenodd" d="M26.6334 5.06111C24.5732 5.06111 22.5974 5.87953 21.1406 7.33632C19.6838 8.79312 18.8654 10.769 18.8654 12.8292V18.3778H13.3167C10.9622 18.3778 8.70411 19.3131 7.03921 20.978C5.3743 22.6429 4.43896 24.901 4.43896 27.2556V58.3278C4.43896 60.6823 5.3743 62.9404 7.03921 64.6053C8.70411 66.2702 10.9622 67.2056 13.3167 67.2056H57.7056C60.0602 67.2056 62.3183 66.2702 63.9832 64.6053C65.6481 62.9404 66.5834 60.6823 66.5834 58.3278V27.2556C66.5834 24.901 65.6481 22.6429 63.9832 20.978C62.3183 19.3131 60.0602 18.3778 57.7056 18.3778H52.157V12.8292C52.157 10.769 51.3386 8.79312 49.8818 7.33632C48.425 5.87953 46.4492 5.06111 44.389 5.06111H26.6334ZM45.4987 18.3778V12.8292C45.4987 12.5349 45.3818 12.2526 45.1737 12.0445C44.9655 11.8364 44.6833 11.7194 44.389 11.7194H26.6334C26.3391 11.7194 26.0568 11.8364 25.8487 12.0445C25.6406 12.2526 25.5237 12.5349 25.5237 12.8292V18.3778H45.4987ZM13.3167 25.0361H57.7056C58.2943 25.0361 58.8588 25.2699 59.275 25.6862C59.6912 26.1024 59.9251 26.6669 59.9251 27.2556V31.6944H11.0973V27.2556C11.0973 26.6669 11.3311 26.1024 11.7474 25.6862C12.1636 25.2699 12.7281 25.0361 13.3167 25.0361ZM11.0973 38.3528V58.3278C11.0973 58.9164 11.3311 59.4809 11.7474 59.8972C12.1636 60.3134 12.7281 60.5472 13.3167 60.5472H57.7056C58.2943 60.5472 58.8588 60.3134 59.275 59.8972C59.6912 59.4809 59.9251 58.9164 59.9251 58.3278V38.3528H39.9501V45.0111H31.0723V38.3528H11.0973Z" fill="#747474"/>
</svg>
