<svg width="272" height="272" viewBox="0 0 272 272" fill="none" xmlns="http://www.w3.org/2000/svg">
<path fill-rule="evenodd" clip-rule="evenodd" d="M271.16 135.58C271.16 60.7072 210.453 0 135.58 0C60.7072 0 0 60.7072 0 135.58C0 203.246 49.5728 259.339 114.398 269.522V174.781H79.9639V135.58H114.398V105.703C114.398 71.7266 134.646 52.9465 165.61 52.9465C180.443 52.9465 195.962 55.5965 195.962 55.5965V88.963H178.86C162.025 88.963 156.763 99.4114 156.763 110.145V135.579H194.36L188.355 174.78H156.761V269.52C221.587 259.357 271.159 203.265 271.159 135.579L271.16 135.58Z" fill="#1977F3"/>
<path fill-rule="evenodd" clip-rule="evenodd" d="M188.355 174.78L194.362 135.579H156.763V110.145C156.763 99.4302 162.006 88.963 178.861 88.963H195.964V55.5965C195.964 55.5965 180.445 52.9463 165.61 52.9463C134.647 52.9463 114.399 71.708 114.399 105.703V135.58H79.9647V174.781H114.399V269.522C121.3 270.607 128.374 271.16 135.581 271.16C142.788 271.16 149.862 270.588 156.763 269.522V174.781H188.357L188.355 174.78Z" fill="#FEFEFE"/>
</svg>
