<svg width="93" height="92" viewBox="0 0 93 92" fill="none" xmlns="http://www.w3.org/2000/svg">
<path d="M33.058 41.4489V32.2578H60.6313V41.4489H33.058ZM79.0136 25.3645C79.0136 22.3174 77.8031 19.3952 75.6485 17.2406C73.494 15.086 70.5717 13.8756 67.5247 13.8756H26.1647C23.1176 13.8756 20.1954 15.086 18.0408 17.2406C15.8862 19.3952 14.6758 22.3174 14.6758 25.3645V66.7245C14.6758 69.7715 15.8862 72.6938 18.0408 74.8483C20.1954 77.0029 23.1176 78.2134 26.1647 78.2134H67.5247C70.5717 78.2134 73.494 77.0029 75.6485 74.8483C77.8031 72.6938 79.0136 69.7715 79.0136 66.7245V25.3645ZM30.7602 27.6622H62.9291C63.5385 27.6622 64.123 27.9043 64.5539 28.3353C64.9848 28.7662 65.2269 29.3506 65.2269 29.96V43.7467C65.2269 44.3561 64.9848 44.9406 64.5539 45.3715C64.123 45.8024 63.5385 46.0445 62.9291 46.0445H30.7602C30.1508 46.0445 29.5664 45.8024 29.1355 45.3715C28.7045 44.9406 28.4624 44.3561 28.4624 43.7467V29.96C28.4624 29.3506 28.7045 28.7662 29.1355 28.3353C29.5664 27.9043 30.1508 27.6622 30.7602 27.6622Z" fill="#747474"/>
</svg>
