<svg width="279" height="272" viewBox="0 0 279 272" fill="none" xmlns="http://www.w3.org/2000/svg">
<path fill-rule="evenodd" clip-rule="evenodd" d="M139.776 0.49408C63.0114 0.49408 0.763123 62.7307 0.763123 139.507C0.763123 200.927 40.5945 253.035 95.8286 271.415C102.776 272.701 105.327 268.401 105.327 264.729C105.327 261.413 105.198 250.463 105.138 238.848C66.4643 247.256 58.3037 222.445 58.3037 222.445C51.9802 206.378 42.8689 202.106 42.8689 202.106C30.2563 193.477 43.8196 193.654 43.8196 193.654C57.7789 194.632 65.1291 207.983 65.1291 207.983C77.5277 229.231 97.6495 223.087 105.582 219.535C106.83 210.551 110.432 204.416 114.408 200.948C83.5313 197.432 51.0732 185.512 51.0732 132.246C51.0732 117.069 56.5035 104.668 65.3961 94.9334C63.9529 91.4298 59.1946 77.2931 66.7429 58.1452C66.7429 58.1452 78.4163 54.4091 104.981 72.3945C116.07 69.3144 127.962 67.7697 139.776 67.7168C151.59 67.7697 163.491 69.3144 174.6 72.3945C201.134 54.4091 212.79 58.1452 212.79 58.1452C220.358 77.2931 215.597 91.4298 214.153 94.9334C223.066 104.668 228.461 117.069 228.461 132.246C228.461 185.639 195.94 197.394 164.985 200.836C169.971 205.151 174.414 213.611 174.414 226.58C174.414 245.181 174.253 260.149 174.253 264.729C174.253 268.427 176.755 272.762 183.801 271.397C239.006 252.995 278.785 200.906 278.785 139.507C278.785 62.7307 216.547 0.49408 139.776 0.49408Z" fill="#1B1817"/>
<path d="M53.4144 200.085C53.1082 200.778 52.0217 200.983 51.0318 200.509C50.0236 200.057 49.4571 199.115 49.784 198.422C50.0833 197.712 51.1722 197.515 52.1782 197.987C53.1888 198.443 53.7643 199.394 53.4144 200.085Z" fill="#1B1817"/>
<path d="M59.0447 206.365C58.3819 206.981 57.0858 206.695 56.2064 205.723C55.2973 204.755 55.1268 203.458 55.7991 202.834C56.4826 202.222 57.7396 202.51 58.6512 203.476C59.5605 204.458 59.7377 205.744 59.0447 206.365Z" fill="#1B1817"/>
<path d="M64.526 214.372C63.6743 214.963 62.2816 214.41 61.4206 213.172C60.5687 211.937 60.5689 210.453 61.4391 209.86C62.3023 209.267 63.6743 209.802 64.5467 211.028C65.3961 212.284 65.3961 213.767 64.526 214.372Z" fill="#1B1817"/>
<path d="M72.035 222.107C71.2731 222.947 69.6501 222.721 68.4623 221.575C67.2469 220.454 66.9086 218.863 67.6727 218.023C68.4438 217.181 70.0761 217.419 71.2731 218.554C72.4792 219.675 72.8475 221.275 72.035 222.107Z" fill="#1B1817"/>
<path d="M82.3937 226.599C82.0576 227.687 80.4945 228.182 78.9198 227.719C77.3477 227.243 76.3186 225.968 76.6364 224.866C76.9632 223.77 78.5333 223.256 80.1192 223.749C81.6893 224.224 82.7206 225.491 82.3937 226.599Z" fill="#1B1817"/>
<path d="M93.7706 227.431C93.8097 228.578 92.4745 229.529 90.8217 229.549C89.1597 229.585 87.8152 228.659 87.7969 227.531C87.7969 226.373 89.1021 225.431 90.7641 225.403C92.417 225.371 93.7706 226.292 93.7706 227.431Z" fill="#1B1817"/>
<path d="M104.357 225.629C104.555 226.747 103.406 227.896 101.765 228.203C100.151 228.497 98.6575 227.807 98.4527 226.696C98.2523 225.55 99.4217 224.401 101.033 224.105C102.677 223.819 104.148 224.491 104.357 225.629Z" fill="#1B1817"/>
</svg>
