<svg width="270" height="272" viewBox="0 0 270 272" fill="none" xmlns="http://www.w3.org/2000/svg">
<mask id="mask0_1_45" style="mask-type:luminance" maskUnits="userSpaceOnUse" x="0" y="0" width="270" height="272">
<path d="M269.277 0H0V271.16H269.277V0Z" fill="white"/>
</mask>
<g mask="url(#mask0_1_45)">
<path d="M229.146 229.146H189.296V166.741C189.296 151.86 189.031 132.704 168.572 132.704C147.817 132.704 144.642 148.917 144.642 165.658V229.142H104.793V100.813H143.048V118.35H143.583C147.412 111.805 152.944 106.42 159.59 102.769C166.237 99.1188 173.75 97.3395 181.327 97.6208C221.715 97.6208 229.163 124.186 229.163 158.747L229.146 229.146ZM59.8311 83.2711C55.2575 83.2721 50.7862 81.9167 46.9829 79.3762C43.1795 76.836 40.2152 73.225 38.4642 68.9998C36.7133 64.7746 36.2544 60.1252 37.1458 55.6393C38.0373 51.1535 40.239 47.0326 43.4725 43.7981C46.7059 40.5634 50.8259 38.3604 55.3115 37.4673C59.7972 36.5741 64.4466 37.0313 68.6724 38.7807C72.8982 40.5302 76.5102 43.4934 79.0518 47.2959C81.5936 51.0982 82.9507 55.5689 82.9514 60.1425C82.952 63.1793 82.3543 66.1864 81.1927 68.9921C80.031 71.7981 78.3283 74.3475 76.1815 76.4952C74.0346 78.643 71.4855 80.3468 68.6799 81.5094C65.8745 82.672 62.8679 83.2706 59.8311 83.2711ZM79.7551 229.146H39.8654V100.813H79.7551V229.146ZM249.012 0.0169799H19.8415C14.64 -0.0417191 9.62775 1.96704 5.90656 5.60185C2.18535 9.23666 0.0596365 14.2001 -0.00384521 19.4016V249.522C0.0574638 254.727 2.18192 259.693 5.903 263.333C9.62407 266.971 14.6375 268.984 19.8415 268.927H249.012C254.226 268.993 259.254 266.986 262.99 263.348C266.724 259.71 268.863 254.736 268.937 249.522V19.385C268.861 14.1732 266.72 9.20409 262.986 5.56937C259.25 1.93465 254.224 -0.0683674 249.012 0.000369666" fill="#0A66C2"/>
</g>
</svg>
