<svg width="120" height="171" viewBox="0 0 120 171" fill="none" xmlns="http://www.w3.org/2000/svg">
<path d="M60 81.225C54.3168 81.225 48.8663 78.973 44.8477 74.9644C40.8291 70.9558 38.5714 65.519 38.5714 59.85C38.5714 54.181 40.8291 48.7442 44.8477 44.7356C48.8663 40.727 54.3168 38.475 60 38.475C65.6832 38.475 71.1337 40.727 75.1523 44.7356C79.1709 48.7442 81.4286 54.181 81.4286 59.85C81.4286 62.657 80.8743 65.4365 79.7974 68.0299C78.7205 70.6232 77.1421 72.9796 75.1523 74.9644C73.1625 76.9493 70.8002 78.5237 68.2004 79.5979C65.6005 80.6721 62.814 81.225 60 81.225ZM60 0C44.087 0 28.8258 6.30561 17.5736 17.5297C6.32141 28.7537 0 43.9768 0 59.85C0 104.738 60 171 60 171C60 171 120 104.738 120 59.85C120 43.9768 113.679 28.7537 102.426 17.5297C91.1742 6.30561 75.913 0 60 0Z" fill="#F24E1E"/>
</svg>
