<svg width="103" height="172" viewBox="0 0 103 172" fill="none" xmlns="http://www.w3.org/2000/svg">
<path d="M85.8333 0H17.1667C12.6138 0 8.24737 1.81214 5.028 5.03776C1.80862 8.26339 0 12.6383 0 17.2V154.8C0 159.362 1.80862 163.737 5.028 166.962C8.24737 170.188 12.6138 172 17.1667 172H85.8333C90.3862 172 94.7526 170.188 97.972 166.962C101.191 163.737 103 159.362 103 154.8V17.2C103 12.6383 101.191 8.26339 97.972 5.03776C94.7526 1.81214 90.3862 0 85.8333 0ZM60.0833 163.4H42.9167V154.8H60.0833V163.4ZM85.8333 146.2H17.1667V25.8H85.8333V146.2Z" fill="#9747FF"/>
</svg>
