<svg width="81" height="80" viewBox="0 0 81 80" fill="none" xmlns="http://www.w3.org/2000/svg">
<path d="M27.2597 33.3408H53.7189M27.2597 59.8H53.7189M27.2597 46.5704H40.4893M14.03 71.0452V8.86597C14.03 8.33967 14.2391 7.83492 14.6113 7.46276C14.9834 7.09061 15.4882 6.88153 16.0145 6.88153H54.5524C55.0785 6.88199 55.5829 7.09137 55.9547 7.46363L66.3664 17.8754C66.5516 18.0602 66.6983 18.2799 66.7982 18.5217C66.8981 18.7635 66.9492 19.0227 66.9486 19.2843V71.0452C66.9486 71.3058 66.8972 71.5639 66.7975 71.8046C66.6978 72.0454 66.5516 72.2642 66.3673 72.4484C66.183 72.6327 65.9643 72.7789 65.7235 72.8786C65.4828 72.9784 65.2247 73.0297 64.9641 73.0297H16.0145C15.7539 73.0297 15.4958 72.9784 15.2551 72.8786C15.0143 72.7789 14.7955 72.6327 14.6113 72.4484C14.427 72.2642 14.2808 72.0454 14.1811 71.8046C14.0814 71.5639 14.03 71.3058 14.03 71.0452Z" stroke="#747474" stroke-width="4.96111" stroke-linecap="round" stroke-linejoin="round"/>
<path d="M53.7188 6.88153V18.1267C53.7187 18.653 53.9278 19.1578 54.3 19.5299C54.6721 19.9021 55.1769 20.1112 55.7032 20.1112H66.9484" stroke="#747474" stroke-width="4.96111" stroke-linecap="round" stroke-linejoin="round"/>
</svg>
