<svg width="328" height="267" viewBox="0 0 328 267" fill="none" xmlns="http://www.w3.org/2000/svg">
<path d="M294.162 66.968C294.361 69.8525 294.361 72.7368 294.361 75.6478C294.361 164.347 226.837 266.642 103.365 266.642V266.59C66.8913 266.642 31.1751 256.195 0.470245 236.497C5.77382 237.135 11.104 237.453 16.4474 237.466C46.6739 237.493 76.0362 227.351 99.816 208.676C71.0917 208.13 45.9029 189.403 37.1034 162.06C47.1657 164.001 57.5336 163.602 67.4097 160.904C36.0933 154.577 13.563 127.062 13.563 95.1075C13.563 94.8151 13.563 94.536 13.563 94.2569C22.8942 99.4542 33.3418 102.338 44.0287 102.657C14.5334 82.9452 5.44152 43.7068 23.2531 13.0284C57.3342 54.9652 107.618 80.4596 161.598 83.158C156.188 59.8435 163.579 35.4125 181.018 19.0231C208.055 -6.3915 250.576 -5.08887 275.99 21.9341C291.024 18.97 305.434 13.4537 318.619 5.63791C313.608 21.1766 303.119 34.3757 289.109 42.763C302.415 41.1944 315.416 37.6322 327.657 32.1956C318.645 45.7006 307.294 57.464 294.162 66.968Z" fill="#1D9BF0"/>
</svg>
