<svg width="67" height="68" viewBox="0 0 67 68" fill="none" xmlns="http://www.w3.org/2000/svg">
<g clip-path="url(#clip0_2_89)">
<path d="M53.074 20.1185C53.074 20.1185 39.1481 39.6148 18.2592 39.6148M18.2592 39.6148C12.6888 39.6148 2.94067 42.4 2.94067 53.5408V64.6815H33.5777V53.5408C33.5777 46.5778 41.9333 50.7556 53.074 31.2593L48.8962 27.0815M18.2592 39.6148C20.8446 39.6148 23.324 38.5878 25.1522 36.7597C26.9803 34.9315 28.0073 32.4521 28.0073 29.8667C28.0073 27.2813 26.9803 24.8018 25.1522 22.9737C23.324 21.1456 20.8446 20.1185 18.2592 20.1185C15.6738 20.1185 13.1943 21.1456 11.3662 22.9737C9.53808 24.8018 8.51104 27.2813 8.51104 29.8667C8.51104 32.4521 9.53808 34.9315 11.3662 36.7597C13.1943 38.5878 15.6738 39.6148 18.2592 39.6148ZM8.51104 14.5482V6.19261H64.2147V45.1852H55.8592M30.7925 3.40742H41.9333V8.9778H30.7925V3.40742Z" stroke="#747474" stroke-width="5.57037"/>
</g>
<defs>
<clipPath id="clip0_2_89">
<rect width="66.8444" height="66.8444" fill="white" transform="translate(0.155518 0.622223)"/>
</clipPath>
</defs>
</svg>
